<?xml version="1.0" encoding="utf-8"?>
<!-- Generator: Adobe Illustrator 24.2.0, SVG Export Plug-In . SVG Version: 6.00 Build 0)  -->
<svg version="1.1" id="Capa_1" xmlns="http://www.w3.org/2000/svg" xmlns:xlink="http://www.w3.org/1999/xlink" x="0px" y="0px"
	 viewBox="0 0 447.2 447.2" style="enable-background:new 0 0 447.2 447.2;" xml:space="preserve">
<g>
	<g>
		<path d="M26.9,255c1.8,0.3,3.7,0.4,5.5,0.4h315.5l-6.9,3.2c-6.7,3.2-12.8,7.5-18.1,12.8l-88.5,88.5c-11.7,11.1-13.6,29-4.6,42.4
			c10.4,14.3,30.5,17.4,44.7,6.9c1.2-0.8,2.2-1.8,3.3-2.8l160-160c12.5-12.5,12.5-32.8,0-45.3c0,0,0,0,0,0l-160-160
			c-12.5-12.5-32.8-12.5-45.3,0.1c-1,1-1.9,2-2.7,3.1c-9,13.4-7,31.3,4.6,42.4l88.3,88.6c4.7,4.7,10.1,8.6,16,11.7l9.6,4.3H34.2
			c-16.3-0.6-30.7,10.8-33.8,26.9C-2.4,235.7,9.4,252.2,26.9,255z"/>
	</g>
</g>
</svg>
