<?xml version="1.0" encoding="utf-8"?>
<!-- Generator: Adobe Illustrator 24.1.2, SVG Export Plug-In . SVG Version: 6.00 Build 0)  -->
<svg version="1.1" id="Capa_1" xmlns="http://www.w3.org/2000/svg" xmlns:xlink="http://www.w3.org/1999/xlink" x="0px" y="0px"
	 viewBox="0 0 512 512" style="enable-background:new 0 0 512 512;" xml:space="preserve">
<style type="text/css">
	.st0{fill:#716D73;}
</style>
<g>
	<g>
		<rect x="170.1" y="462" class="st0" width="162.5" height="50"/>
	</g>
</g>
<g>
	<g>
		<g>
			<path class="st0" d="M56.9,140.1L56.9,140.1L56.9,140.1z"/>
			<path class="st0" d="M56.9,140.1l15.8,357.5c0.4,8,7,14.3,15,14.3H140v-65c0-8.3,6.7-15,15-15h192.5c8.3,0,15,6.7,15,15v65h61.8
				c8,0,14.6-6.3,15-14.3l15.8-357.5L56.9,140.1L56.9,140.1z"/>
		</g>
	</g>
</g>
<g>
	<g>
		<path class="st0" d="M432.4,0H79.6C54.3,0,33.6,20.6,33.6,45.9v49.5c0,7.3,5.2,13.4,12.1,14.7h420.5c6.9-1.3,12.1-7.4,12.1-14.7
			V45.9C478.4,20.6,457.7,0,432.4,0z"/>
	</g>
</g>
</svg>
