<svg width="24" height="24" viewBox="0 0 24 24" fill="none" xmlns="http://www.w3.org/2000/svg">
<path fill-rule="evenodd" clip-rule="evenodd" d="M7 6V8H17V6H7Z" fill="#292C30"/>
<path d="M7 10H9V12H7V10Z" fill="#292C30"/>
<path d="M7 14H9V16H7V14Z" fill="#292C30"/>
<path d="M11 10H13V12H11V10Z" fill="#292C30"/>
<path d="M11 14H13V16H11V14Z" fill="#292C30"/>
<path d="M15 10H17V12H15V10Z" fill="#292C30"/>
<path d="M15 14H17V16H15V14Z" fill="#292C30"/>
<path fill-rule="evenodd" clip-rule="evenodd" d="M5 4V20H19V4H5ZM4 2C3.44772 2 3 2.44772 3 3V21C3 21.5523 3.44772 22 4 22H20C20.5523 22 21 21.5523 21 21V3C21 2.44772 20.5523 2 20 2H4Z" fill="black"/>
</svg>
