<?xml version="1.0" encoding="utf-8"?>
<!-- Generator: Adobe Illustrator 24.1.2, SVG Export Plug-In . SVG Version: 6.00 Build 0)  -->
<svg version="1.1" id="Capa_1" xmlns="http://www.w3.org/2000/svg" xmlns:xlink="http://www.w3.org/1999/xlink" x="0px" y="0px"
	 viewBox="0 0 271.7 271.7" style="enable-background:new 0 0 271.7 271.7;" xml:space="preserve">
<style type="text/css">
	.st0{fill:#716D73;}
</style>
<g>
	<g>
		<g>
			<path class="st0" d="M114.9,0H10.4C4.7,0,0,4.7,0,10.4v104.5c0,5.8,4.7,10.4,10.4,10.4h104.5c5.8,0,10.4-4.7,10.4-10.4V10.4
				C125.4,4.7,120.7,0,114.9,0z"/>
			<path class="st0" d="M261.2,0H156.7c-5.8,0-10.4,4.7-10.4,10.4v104.5c0,5.8,4.7,10.4,10.4,10.4h104.5c5.8,0,10.4-4.7,10.4-10.4
				V10.4C271.7,4.7,267,0,261.2,0z"/>
			<path class="st0" d="M114.9,146.3H10.4C4.7,146.3,0,151,0,156.7v104.5c0,5.8,4.7,10.4,10.4,10.4h104.5c5.8,0,10.4-4.7,10.4-10.4
				V156.7C125.4,151,120.7,146.3,114.9,146.3z"/>
			<path class="st0" d="M261.2,146.3H156.7c-5.8,0-10.4,4.7-10.4,10.4v104.5c0,5.8,4.7,10.4,10.4,10.4h104.5
				c5.8,0,10.4-4.7,10.4-10.4V156.7C271.7,151,267,146.3,261.2,146.3z"/>
		</g>
	</g>
</g>
</svg>
