<?xml version="1.0" encoding="utf-8"?>
<!-- Generator: Adobe Illustrator 24.1.2, SVG Export Plug-In . SVG Version: 6.00 Build 0)  -->
<svg version="1.1" id="Layer_1" xmlns="http://www.w3.org/2000/svg" xmlns:xlink="http://www.w3.org/1999/xlink" x="0px" y="0px"
	 viewBox="0 0 297 297" style="enable-background:new 0 0 297 297;" xml:space="preserve">
<style type="text/css">
	.st0{fill:#FFFFFF;}
</style>
<path class="st0" d="M290.2,169.9l-41.1-96c7.6-4.5,12.7-12.8,12.7-22.3c0-14.3-11.6-25.9-25.9-25.9c-5.4,0-9.8,4.4-9.8,9.8
	s4.4,9.8,9.8,9.8c3.5,0,6.4,2.9,6.4,6.4c0,3.5-2.9,6.4-6.4,6.4h-77.5V19.4c0-5.4-4.4-9.8-9.8-9.8s-9.8,4.4-9.8,9.8V58H61.2
	c-3.5,0-6.4-2.9-6.4-6.4c0-3.5,2.9-6.4,6.4-6.4c5.4,0,9.8-4.4,9.8-9.8s-4.4-9.8-9.8-9.8c-14.3,0-25.9,11.6-25.9,25.9
	c0,9.5,5.1,17.7,12.7,22.3l-41.1,96c-3.9,1.3-6.8,5-6.8,9.3c0,33.8,27.5,61.3,61.2,61.3c33.8,0,61.2-27.5,61.2-61.3
	c0-4.4-2.9-8.1-6.8-9.3L76.1,77.6h62.7v190.3h-38.6c-5.4,0-9.8,4.4-9.8,9.8c0,5.4,4.4,9.8,9.8,9.8h96.9c5.4,0,9.8-4.4,9.8-9.8
	c0-5.4-4.4-9.8-9.8-9.8h-38.6V77.6h62.7l-39.6,92.4c-3.9,1.3-6.8,5-6.8,9.3c0,33.8,27.5,61.3,61.2,61.3c33.8,0,61.2-27.5,61.2-61.3
	C297,174.9,294.1,171.2,290.2,169.9L290.2,169.9z M61.2,92.6l32.9,76.8H28.3C28.3,169.5,61.2,92.6,61.2,92.6z M61.2,221
	c-19.6,0-36.1-13.6-40.5-32h81C97.3,207.3,80.8,221,61.2,221z M268.7,169.5h-65.9l32.9-76.8L268.7,169.5z M235.8,221
	c-19.6,0-36.1-13.6-40.5-32h81C271.9,207.3,255.4,221,235.8,221z"/>
</svg>
