<?xml version="1.0" encoding="utf-8"?>
<!-- Generator: Adobe Illustrator 24.2.0, SVG Export Plug-In . SVG Version: 6.00 Build 0)  -->
<svg version="1.1" id="Capa_1" xmlns="http://www.w3.org/2000/svg" xmlns:xlink="http://www.w3.org/1999/xlink" x="0px" y="0px"
	 viewBox="0 0 512 512" style="enable-background:new 0 0 512 512;" xml:space="preserve">
<style type="text/css">
	.st0{fill:#763A9C;}
</style>
<g>
	<circle class="st0" cx="318.3" cy="318.3" r="17.4"/>
	<circle class="st0" cx="193.7" cy="193.7" r="17.4"/>
	<path class="st0" d="M512,256l-29-51.8l3.7-59.3l-48.7-34l-22.4-55L357,46.2L313,6.4l-57,16.9L199,6.4l-44,39.9l-58.6,9.6l-22.4,55
		l-48.7,34l3.7,59.3L0,256l29,51.8l-3.7,59.3l48.7,34l22.4,55l58.6,9.6l44,39.9l57-16.9l57,16.9l44-39.9l58.6-9.6l22.4-55l48.7-34
		l-3.7-59.3L512,256z M146.2,193.7c0-26.2,21.3-47.4,47.4-47.4s47.4,21.3,47.4,47.4s-21.3,47.4-47.4,47.4S146.2,219.8,146.2,193.7z
		 M184.5,348.7l-21.2-21.2l164.1-164.1l21.2,21.2L184.5,348.7z M318.3,365.8c-26.2,0-47.4-21.3-47.4-47.4s21.3-47.4,47.4-47.4
		s47.4,21.3,47.4,47.4S344.5,365.8,318.3,365.8z"/>
</g>
</svg>
