<?xml version="1.0" encoding="utf-8"?>
<!-- Generator: Adobe Illustrator 24.1.2, SVG Export Plug-In . SVG Version: 6.00 Build 0)  -->
<svg version="1.1" id="Capa_1" xmlns="http://www.w3.org/2000/svg" xmlns:xlink="http://www.w3.org/1999/xlink" x="0px" y="0px"
	 viewBox="0 0 512 512" style="enable-background:new 0 0 512 512;" xml:space="preserve">
<style type="text/css">
	.st0{fill:#716D73;}
</style>
<g>
	<g>
		<path class="st0" d="M15,152c-8.3,0-15,6.7-15,15v180c0,8.3,6.7,15,15,15c24.8,0,45-20.2,45-45V197C60,172.2,39.8,152,15,152z"/>
	</g>
</g>
<g>
	<g>
		<path class="st0" d="M464.3,422h-54.6c-9,15.3-17.7,33-17.7,45c0,24.9,20.1,45,45,45c24.9,0,45-20.1,45-45
			C482,455,473.3,437.3,464.3,422z"/>
	</g>
</g>
<g>
	<g>
		<path class="st0" d="M377,182h-62c-39.3-38.3-106.8-38.3-146,0H90v150h79c39.3,38.3,106.8,38.3,146,0h32c8.3,0,15,6.7,15,15v30
			c0,8.3,6.7,15,15,15h120c8.3,0,15-6.7,15-15v-60C512,242.6,451.4,182,377,182z"/>
	</g>
</g>
<g>
	<g>
		<path class="st0" d="M362,0c-5.7,0-15.2,2.7-23.3,7.3c-8.9,5.1-19.1,7.7-29.4,7.7H174.6c-10.3,0-20.4-2.6-29.4-7.7
			C137.2,2.7,127.7,0,122,0C97.2,0,77,20.2,77,45s20.2,45,45,45c5.7,0,15.2-2.7,23.2-7.3c9-5.1,19-7.7,29.3-7.7H212v51.9
			c9.7-2.1,19.7-3.6,30-3.6s20.3,1.5,30,3.6V75h37.5c10.3,0,20.4,2.7,29.3,7.7c8.1,4.6,17.6,7.3,23.2,7.3c24.8,0,45-20.2,45-45
			S386.8,0,362,0z"/>
	</g>
</g>
</svg>
