<?xml version="1.0" encoding="utf-8"?>
<!-- Generator: Adobe Illustrator 24.1.2, SVG Export Plug-In . SVG Version: 6.00 Build 0)  -->
<svg version="1.1" id="Capa_1" xmlns="http://www.w3.org/2000/svg" xmlns:xlink="http://www.w3.org/1999/xlink" x="0px" y="0px"
	 viewBox="0 0 512 512" style="enable-background:new 0 0 512 512;" xml:space="preserve">
<style type="text/css">
	.st0{fill:#716D73;}
</style>
<g>
	<g>
		<g>
			<rect x="402.3" y="493.7" class="st0" width="36.6" height="18.3"/>
			<rect x="73.1" y="493.7" class="st0" width="36.6" height="18.3"/>
			<polygon class="st0" points="64,475.4 118.9,475.4 393.1,475.4 448,475.4 448,457.1 64,457.1 			"/>
			<path class="st0" d="M438.9,0H73.1c-5,0-9.1,4.1-9.1,9.1v9.1h384V9.1C448,4.1,443.9,0,438.9,0z"/>
			<path class="st0" d="M321.1,52.2c1.7,1.7,4,2.7,6.5,2.7H448V36.6H305.5L321.1,52.2z"/>
			<path class="st0" d="M308.2,65.1l-28.5-28.5H64v402.3h384V73.1H327.6C320.3,73.2,313.3,70.3,308.2,65.1z M100.6,73.1
				c0,5-4.1,9.1-9.1,9.1c-5,0-9.1-4.1-9.1-9.1V64c0-5,4.1-9.1,9.1-9.1c5,0,9.1,4.1,9.1,9.1V73.1z M137.1,73.1c0,5-4.1,9.1-9.1,9.1
				c-5,0-9.1-4.1-9.1-9.1V64c0-5,4.1-9.1,9.1-9.1c5,0,9.1,4.1,9.1,9.1V73.1z"/>
		</g>
	</g>
</g>
</svg>
