<?xml version="1.0" encoding="utf-8"?>
<!-- Generator: Adobe Illustrator 24.1.2, SVG Export Plug-In . SVG Version: 6.00 Build 0)  -->
<svg version="1.1" id="Layer_1" xmlns="http://www.w3.org/2000/svg" xmlns:xlink="http://www.w3.org/1999/xlink" x="0px" y="0px"
	 viewBox="0 0 104.3 74.3" style="enable-background:new 0 0 104.3 74.3;" xml:space="preserve">
<style type="text/css">
	.st0{fill:url(#SVGID_1_);}
	.st1{fill:#2F4197;stroke:#303E98;stroke-width:1.4;stroke-miterlimit:10;}
</style>
<linearGradient id="SVGID_1_" gradientUnits="userSpaceOnUse" x1="16.0966" y1="69.6249" x2="50.3404" y2="30.7713">
	<stop  offset="0" style="stop-color:#ED1B34"/>
	<stop  offset="1" style="stop-color:#A01D21"/>
</linearGradient>
<path class="st0" d="M64,27.5c-0.7-0.2-1.4-0.3-2.1-0.4c-3.5-2.5-8.3-2.6-11.9,0.1l-10.2,7.7l-4.4-5.8c-0.8-1.1-1.8-1.9-2.9-2.5
	l0.1-0.2l-1.9-0.6c-5.3-1.5-10.8,1.6-12.4,6.9L9.7,62.9l1.9,0.6C17,65,22.5,61.9,24,56.6l4.7-16.4l7.9,10.6l13.1-9.7l-6.3,21.9
	l1.9,0.6c5.3,1.5,10.8-1.6,12.4-6.9L66,28.1L64,27.5z"/>
<path class="st1" d="M78,26l4.2-14.8L81,10.8c-5.3-1.5-10.8,1.6-12.4,6.9L66.3,26h-7.3c-6.2,0-11.3,5.1-11.3,11.3H63l-4.2,14.8
	l1.3,0.4c5.3,1.5,10.8-1.6,12.4-6.9l2.4-8.3h7.3c6.2,0,11.3-5.1,11.3-11.3H78z"/>
</svg>
