<?xml version="1.0" encoding="utf-8"?>
<!-- Generator: Adobe Illustrator 24.1.2, SVG Export Plug-In . SVG Version: 6.00 Build 0)  -->
<svg version="1.1" id="Capa_1" xmlns="http://www.w3.org/2000/svg" xmlns:xlink="http://www.w3.org/1999/xlink" x="0px" y="0px"
	 viewBox="0 0 512 512" style="enable-background:new 0 0 512 512;" xml:space="preserve">
<style type="text/css">
	.st0{fill:#716D73;}
</style>
<g>
	<path class="st0" d="M361.1,30c0-16.6-13.4-30-30-30s-30,13.4-30,30v45.9h60L361.1,30z"/>
	<path class="st0" d="M211,30c0-16.6-13.4-30-30-30s-30,13.4-30,30v45.9h60V30z"/>
	<path class="st0" d="M436.1,196v-60h-75v-30h-60v30H211v-30h-60v30h-75v60H436.1z"/>
	<path class="st0" d="M105.9,226v45c0,67.1,44.2,124,105.1,143.2V512h90v-97.8C361.9,395,406.1,338.1,406.1,271v-45L105.9,226
		L105.9,226z"/>
</g>
</svg>
