<?xml version="1.0" encoding="utf-8"?>
<!-- Generator: Adobe Illustrator 24.1.2, SVG Export Plug-In . SVG Version: 6.00 Build 0)  -->
<svg version="1.1" id="Layer_1" xmlns="http://www.w3.org/2000/svg" xmlns:xlink="http://www.w3.org/1999/xlink" x="0px" y="0px"
	 viewBox="0 0 512 512" style="enable-background:new 0 0 512 512;" xml:space="preserve">
<style type="text/css">
	.st0{fill:#716D73;}
</style>
<path class="st0" d="M456.8,0H55.2C24.7,0,0,24.7,0,55.2v73.4h512V55.2C512,24.7,487.3,0,456.8,0z M122,74.9
	c-2.8,2.8-6.7,4.4-10.6,4.4c-3.9,0-7.8-1.6-10.6-4.4c-2.8-2.8-4.4-6.7-4.4-10.6c0-3.9,1.6-7.8,4.4-10.6c2.8-2.8,6.6-4.4,10.6-4.4
	s7.8,1.6,10.6,4.4c2.8,2.8,4.4,6.7,4.4,10.6C126.4,68.2,124.8,72.1,122,74.9z M218.4,74.9c-2.8,2.8-6.7,4.4-10.6,4.4
	c-3.9,0-7.8-1.6-10.6-4.4c-2.8-2.8-4.4-6.6-4.4-10.6c0-3.9,1.6-7.8,4.4-10.6s6.7-4.4,10.6-4.4c3.9,0,7.8,1.6,10.6,4.4
	s4.4,6.7,4.4,10.6C222.8,68.2,221.2,72.1,218.4,74.9z M314.8,74.9c-2.8,2.8-6.7,4.4-10.6,4.4c-3.9,0-7.8-1.6-10.6-4.4
	c-2.8-2.8-4.4-6.7-4.4-10.6c0-3.9,1.6-7.8,4.4-10.6c2.8-2.8,6.6-4.4,10.6-4.4s7.8,1.6,10.6,4.4c2.8,2.8,4.4,6.7,4.4,10.6
	C319.2,68.2,317.6,72.1,314.8,74.9z M411.2,74.9c-2.8,2.8-6.7,4.4-10.6,4.4c-3.9,0-7.8-1.6-10.6-4.4c-2.8-2.8-4.4-6.6-4.4-10.6
	c0-3.9,1.6-7.8,4.4-10.6s6.6-4.4,10.6-4.4c3.9,0,7.8,1.6,10.6,4.4c2.8,2.8,4.4,6.7,4.4,10.6C415.6,68.2,414,72.1,411.2,74.9z"/>
<path class="st0" d="M417.7,237.8H94.3v194.9h323.5V237.8z M368.5,302.1H143.5c-8.3,0-15-6.7-15-15s6.7-15,15-15h224.9
	c8.3,0,15,6.7,15,15S376.8,302.1,368.5,302.1z"/>
<path class="st0" d="M0,456.8C0,487.3,24.7,512,55.2,512h401.7c30.4,0,55.2-24.7,55.2-55.2V158.5H0V456.8z M64.3,222.8
	c0-8.3,6.7-15,15-15h353.5c8.3,0,15,6.7,15,15v224.9c0,8.3-6.7,15-15,15H79.3c-8.3,0-15-6.7-15-15V222.8z"/>
</svg>
