<?xml version="1.0" encoding="iso-8859-1"?>
<!-- Generator: Adobe Illustrator 19.0.0, SVG Export Plug-In . SVG Version: 6.00 Build 0)  -->
<svg version="1.1" id="Capa_1" xmlns="http://www.w3.org/2000/svg" xmlns:xlink="http://www.w3.org/1999/xlink" x="0px" y="0px"
	 viewBox="0 0 512 512" style="enable-background:new 0 0 512 512;" xml:space="preserve">
<g>
	<g>
		<g>
			<path d="M429.942,233.528c-2.13-21.606-19.327-39.027-40.889-41.423c-13.188-1.465-26.386,2.734-36.206,11.522
				c-9.827,8.795-15.462,21.398-15.462,34.579c0,4.619,0.714,9.163,2.042,13.5c2.315,7.563,6.538,14.476,12.294,20
				c0.833,0.799,1.685,1.58,2.581,2.318l-15.211,35.728c-0.487,1.143-0.798,2.328-0.963,3.525c-0.449,3.265,0.275,6.617,2.143,9.443
				c2.444,3.697,6.484,5.944,10.886,6.13c0.195,0.008,0.387,0.036,0.583,0.036h39.218h20h4.86c4.629,0,8.917-2.305,11.469-6.167
				s2.994-8.709,1.181-12.968l-15.209-35.726C425.282,264.158,431.489,249.212,429.942,233.528z M393.917,279.653l8.385,19.695
				l4.061,9.538h-15.404h-5.191h-24.571l5.031-11.818l7.417-17.421c1.094-2.57,1.503-5.272,1.308-7.898c0-0.003,0-0.006-0.001-0.009
				c-0.355-4.763-2.724-9.271-6.788-12.261c-2.921-2.148-5.305-4.793-7.085-7.774c-2.395-4.011-3.694-8.634-3.694-13.5
				c0-7.499,3.208-14.67,8.801-19.676c5.667-5.073,13.004-7.402,20.659-6.547c12.231,1.359,21.985,11.246,23.195,23.508
				c0.933,9.46-3.064,18.441-10.691,24.024c-0.459,0.336-0.889,0.697-1.305,1.07C392.771,265.324,391.053,272.927,393.917,279.653z"
				/>
			<path d="M103.21,423.53c-0.25-0.61-0.56-1.19-0.92-1.73c-0.37-0.55-0.79-1.06-1.25-1.52c-0.46-0.46-0.97-0.88-1.52-1.24
				c-0.54-0.36-1.12-0.67-1.72-0.92c-0.61-0.25-1.24-0.45-1.88-0.57c-1.29-0.26-2.61-0.26-3.9,0c-0.64,0.12-1.27,0.32-1.87,0.57
				c-0.61,0.25-1.19,0.56-1.73,0.92c-0.55,0.36-1.06,0.78-1.52,1.24c-0.46,0.46-0.88,0.97-1.24,1.52c-0.36,0.54-0.67,1.12-0.92,1.73
				c-0.25,0.6-0.44,1.23-0.57,1.87c-0.13,0.64-0.2,1.3-0.2,1.95c0,2.63,1.07,5.21,2.93,7.07c0.46,0.46,0.97,0.88,1.52,1.24
				c0.54,0.36,1.12,0.67,1.73,0.92c0.6,0.25,1.23,0.44,1.87,0.57s1.3,0.2,1.95,0.2c0.65,0,1.31-0.07,1.95-0.2
				c0.64-0.13,1.27-0.32,1.88-0.57c0.6-0.25,1.18-0.56,1.72-0.92c0.55-0.36,1.06-0.78,1.52-1.24c1.86-1.86,2.93-4.44,2.93-7.07
				c0-0.65-0.07-1.31-0.2-1.95C103.65,424.76,103.45,424.13,103.21,423.53z"/>
			<path d="M484.662,147.84h-8.887V91.997C475.775,41.27,434.506,0,383.779,0c-50.727,0-91.996,41.27-91.996,91.997v55.844h-8.887
				c-14.442,0-26.192,11.75-26.192,26.192v77.672H38.02c-20.332,0-36.874,16.542-36.874,36.874v186.547
				C1.146,495.458,17.687,512,38.02,512h336.064c20.333,0,36.874-16.542,36.874-36.874V371.233h49.994
				c27.516,0,49.902-22.386,49.902-49.902V174.033C510.854,159.59,499.104,147.84,484.662,147.84z M311.783,91.997
				c0-39.7,32.297-71.997,71.996-71.997c39.699,0,71.996,32.297,71.996,71.997v55.844H311.783V91.997z M22.468,282.034
				c0.018-0.043,0.041-0.084,0.06-0.128c0.181-0.418,0.379-0.826,0.591-1.226c0.075-0.14,0.156-0.276,0.235-0.414
				c0.171-0.301,0.35-0.597,0.538-0.886c0.094-0.144,0.19-0.287,0.288-0.428c0.201-0.289,0.413-0.569,0.632-0.844
				c0.092-0.116,0.181-0.235,0.276-0.349c0.318-0.38,0.649-0.748,0.998-1.098c0.021-0.021,0.044-0.04,0.066-0.061
				c0.33-0.327,0.675-0.638,1.031-0.937c0.12-0.1,0.244-0.195,0.366-0.292c0.27-0.215,0.546-0.422,0.829-0.62
				c0.142-0.099,0.284-0.196,0.429-0.291c0.292-0.191,0.591-0.371,0.896-0.544c0.133-0.076,0.264-0.156,0.399-0.228
				c0.44-0.235,0.888-0.456,1.35-0.651c0.016-0.007,0.032-0.011,0.048-0.018c0.446-0.188,0.904-0.353,1.368-0.502
				c0.151-0.049,0.306-0.089,0.46-0.134c0.339-0.098,0.682-0.188,1.03-0.265c0.175-0.039,0.351-0.075,0.528-0.109
				c0.352-0.066,0.709-0.119,1.069-0.164c0.162-0.02,0.323-0.044,0.486-0.059c0.52-0.049,1.045-0.08,1.578-0.08h218.684v49.626
				c0,12.231,4.43,23.441,11.761,32.129l-49.618,28.354c-8.148,3.508-17.441,3.508-25.589,0l-20.411-11.507l-150.842-87.01
				C22.146,282.87,22.294,282.446,22.468,282.034z M389.635,481.673c-0.017,0.041-0.038,0.079-0.056,0.119
				c-0.182,0.42-0.381,0.831-0.595,1.233c-0.075,0.14-0.156,0.276-0.234,0.413c-0.172,0.302-0.351,0.598-0.54,0.887
				c-0.094,0.143-0.189,0.285-0.286,0.426c-0.202,0.29-0.415,0.572-0.635,0.848c-0.091,0.115-0.179,0.233-0.273,0.345
				c-0.319,0.38-0.65,0.749-1,1.1c-0.019,0.019-0.04,0.036-0.06,0.055c-0.332,0.329-0.679,0.642-1.037,0.943
				c-0.119,0.1-0.242,0.193-0.364,0.29c-0.271,0.215-0.547,0.424-0.831,0.622c-0.141,0.099-0.283,0.195-0.427,0.29
				c-0.292,0.191-0.592,0.372-0.897,0.545c-0.133,0.076-0.264,0.155-0.399,0.228c-0.44,0.235-0.889,0.456-1.35,0.651
				c-0.015,0.006-0.031,0.011-0.046,0.018c-0.447,0.188-0.905,0.353-1.37,0.502c-0.152,0.049-0.307,0.089-0.461,0.134
				c-0.339,0.098-0.682,0.188-1.029,0.265c-0.175,0.039-0.351,0.075-0.528,0.109c-0.352,0.066-0.709,0.119-1.069,0.164
				c-0.162,0.02-0.322,0.044-0.486,0.059c-0.52,0.049-1.045,0.08-1.578,0.08H38.02c-0.533,0-1.058-0.031-1.578-0.08
				c-0.163-0.015-0.324-0.04-0.486-0.059c-0.36-0.044-0.717-0.097-1.069-0.164c-0.177-0.033-0.353-0.07-0.528-0.109
				c-0.347-0.077-0.69-0.167-1.029-0.265c-0.154-0.045-0.309-0.085-0.461-0.134c-0.464-0.149-0.922-0.314-1.368-0.502
				c-0.016-0.007-0.032-0.011-0.048-0.018c-0.462-0.196-0.91-0.417-1.35-0.651c-0.135-0.072-0.266-0.152-0.399-0.228
				c-0.304-0.173-0.604-0.353-0.896-0.544c-0.145-0.095-0.287-0.192-0.429-0.291c-0.283-0.198-0.559-0.406-0.829-0.62
				c-0.122-0.097-0.247-0.191-0.366-0.292c-0.356-0.299-0.701-0.61-1.031-0.937c-0.021-0.021-0.045-0.04-0.066-0.061
				c-0.35-0.35-0.68-0.719-0.998-1.098c-0.095-0.114-0.184-0.233-0.276-0.349c-0.218-0.275-0.43-0.555-0.631-0.844
				c-0.099-0.141-0.194-0.284-0.289-0.429c-0.189-0.289-0.367-0.584-0.538-0.885c-0.078-0.138-0.16-0.274-0.235-0.414
				c-0.213-0.399-0.411-0.808-0.591-1.226c-0.019-0.043-0.041-0.084-0.06-0.128c-0.174-0.412-0.322-0.837-0.464-1.264l42.141-24.309
				c4.784-2.759,6.425-8.875,3.666-13.659c-2.759-4.784-8.875-6.425-13.659-3.666l-33.007,19.039v-151.92l131.687,75.961
				l-33.134,19.113c-4.784,2.759-6.425,8.875-3.666,13.659c2.76,4.784,8.875,6.425,13.659,3.666l43.154-24.893l7.073,4.08
				c8.061,4.65,17.095,6.974,26.133,6.974c9.036,0,18.074-2.325,26.133-6.974l7.072-4.08l150.842,87.01
				C389.958,480.835,389.81,481.26,389.635,481.673z M390.958,457.813l-131.687-75.961l26.411-15.235
				c6.369,2.954,13.454,4.615,20.924,4.615h84.352V457.813z M460.952,351.234h-49.994h-20h-78.605h-5.747
				c-7.86,0-15.017-3.053-20.36-8.03c-5.865-5.463-9.543-13.244-9.543-21.872v-49.626v-20v-77.672c0-3.415,2.778-6.192,6.192-6.192
				h18.887h163.993h18.887c3.414,0,6.192,2.778,6.192,6.192v147.298h0C490.854,337.82,477.44,351.234,460.952,351.234z"/>
		</g>
	</g>
</g>
<g>
</g>
<g>
</g>
<g>
</g>
<g>
</g>
<g>
</g>
<g>
</g>
<g>
</g>
<g>
</g>
<g>
</g>
<g>
</g>
<g>
</g>
<g>
</g>
<g>
</g>
<g>
</g>
<g>
</g>
</svg>
