<?xml version="1.0" encoding="utf-8"?>
<!-- Generator: Adobe Illustrator 24.2.0, SVG Export Plug-In . SVG Version: 6.00 Build 0)  -->
<svg version="1.1" id="Layer_1" xmlns="http://www.w3.org/2000/svg" xmlns:xlink="http://www.w3.org/1999/xlink" x="0px" y="0px"
	 viewBox="0 0 512 512" style="enable-background:new 0 0 512 512;" xml:space="preserve">
<style type="text/css">
	.st0{fill:#763A9C;}
</style>
<path class="st0" d="M409.5,96.4L294.6,12.6c-23-16.7-53.8-16.8-76.8-0.1L102.6,96.4c-18.7,13.6-29.8,35.4-29.8,58.5v279.4
	c0,42.8,34.8,77.7,77.7,77.7h211.1c42.8,0,77.7-34.8,77.7-77.7V154.9C439.2,131.8,428.1,110,409.5,96.4L409.5,96.4z M256.7,75.5
	c9.4,0,17,7.6,17,17s-7.6,17-17,17c-9.4,0-17-7.6-17-17S247.3,75.5,256.7,75.5z M142.7,241.8c0-26.7,21.6-48.3,48.3-48.3
	c26.7,0,48.3,21.6,48.3,48.3c0,26.7-21.6,48.3-48.3,48.3C164.3,290.1,142.7,268.5,142.7,241.8z M194.4,384.6
	c-14.2,0-21.6-17.4-11.4-27.5l124.7-124.7c6.3-6.3,16.5-6.3,22.8,0c6.3,6.3,6.3,16.5,0,22.8L205.8,379.8
	C202.6,383,198.5,384.6,194.4,384.6L194.4,384.6z M355.1,406c0-0.6-11.5,14.1-34.2,14.1c-26.5,0-48.3-21.4-48.3-48.3
	c0-26.7,21.6-48.3,48.3-48.3C364.2,323.5,385.3,375.9,355.1,406L355.1,406z"/>
<path class="st0" d="M321,355.8c-8.9,0-16,7.2-16,16c0,14.2,17.3,21.4,27.4,11.3c0-0.2,4.7-3.9,4.7-11.3
	C337,363,329.9,355.8,321,355.8z"/>
<path class="st0" d="M202.3,253.2c10-10,3-27.4-11.3-27.4c-8.9,0-16,7.2-16,16C175,256.2,192.3,263.2,202.3,253.2L202.3,253.2z"/>
</svg>
