<?xml version="1.0" encoding="utf-8"?>
<!-- Generator: Adobe Illustrator 24.1.2, SVG Export Plug-In . SVG Version: 6.00 Build 0)  -->
<svg version="1.1" id="Layer_1" xmlns="http://www.w3.org/2000/svg" xmlns:xlink="http://www.w3.org/1999/xlink" x="0px" y="0px"
	 viewBox="0 0 459.7 459.7" style="enable-background:new 0 0 459.7 459.7;" xml:space="preserve">
<style type="text/css">
	.st0{fill:#716D73;}
</style>
<g>
	<g>
		<g>
			<path class="st0" d="M348,163.2H111.7h0c-47.6,0-86.7,38.7-86.7,86.7v85.4c0,8.5,6.9,15.4,15.4,15.4h378.7
				c8.5,0,15.4-6.9,15.4-15.4v-85.4C434.6,201.8,395.3,163.2,348,163.2z M101.1,302.4c-12.5,0-22.7-10.2-22.7-22.7
				c0-12.5,10.2-22.7,22.7-22.7c12.5,0,22.7,10.2,22.7,22.7S113.6,302.4,101.1,302.4z"/>
			<path class="st0" d="M348,132.4c6.3,0,12.6,0.5,18.6,1.5V15.4c0-8.5-6.9-15.4-15.4-15.4H108.5C100,0,93.1,6.9,93.1,15.4v118.4
				C105.7,131.8,87.8,132.4,348,132.4z"/>
			<path class="st0" d="M100.7,444.2L100.7,444.2c0,8.5,6.9,15.4,15.4,15.4H147c8.5,0,15.4-6.9,15.4-15.4v-62.6h-61.7V444.2z"/>
			<path class="st0" d="M199,424.7L199,424.7c0,8.5,6.9,15.4,15.4,15.4h30.9c8.5,0,15.4-6.9,15.4-15.4v-43.1H199V424.7z"/>
			<path class="st0" d="M297.2,406.2L297.2,406.2c0,8.5,6.9,15.4,15.4,15.4h30.9c8.5,0,15.4-6.9,15.4-15.4v-24.6h-61.7V406.2z"/>
		</g>
	</g>
</g>
</svg>
