<?xml version="1.0" encoding="utf-8"?>
<!-- Generator: Adobe Illustrator 24.1.2, SVG Export Plug-In . SVG Version: 6.00 Build 0)  -->
<svg version="1.1" id="Layer_1" xmlns="http://www.w3.org/2000/svg" xmlns:xlink="http://www.w3.org/1999/xlink" x="0px" y="0px"
	 viewBox="0 0 512 512" style="enable-background:new 0 0 512 512;" xml:space="preserve">
<style type="text/css">
	.st0{fill:#716D73;}
</style>
<path class="st0" d="M191.7,239.7c-9.4,0-17.1,7.7-17.1,17.1s7.7,17.1,17.1,17.1c9.4,0,17.1-7.7,17.1-17.1S201.2,239.7,191.7,239.7z
	"/>
<path class="st0" d="M456.8,33H55.2C24.7,33,0,57.7,0,88.2v337.4c0,30.4,24.7,55.2,55.2,55.2h401.7c30.4,0,55.2-24.8,55.2-55.2V88.2
	C512,57.7,487.3,33,456.8,33z M319.2,361.3c0,30.4-24.7,55.2-55.2,55.2H119.4c-30.4,0-55.2-24.8-55.2-55.2V152.4
	c0-30.4,24.8-55.2,55.2-55.2H264c30.4,0,55.2,24.8,55.2,55.2V361.3z M432.7,400.4h-64.3c-8.3,0-15-6.7-15-15c0-8.3,6.7-15,15-15
	h64.3c8.3,0,15,6.7,15,15C447.7,393.7,441,400.4,432.7,400.4z M432.7,336.1h-64.3c-8.3,0-15-6.7-15-15c0-8.3,6.7-15,15-15h64.3
	c8.3,0,15,6.7,15,15C447.7,329.4,441,336.1,432.7,336.1z M432.7,271.9h-64.3c-8.3,0-15-6.7-15-15s6.7-15,15-15h64.3
	c8.3,0,15,6.7,15,15S441,271.9,432.7,271.9z M432.7,207.6h-64.3c-8.3,0-15-6.7-15-15c0-8.3,6.7-15,15-15h64.3c8.3,0,15,6.7,15,15
	C447.7,200.9,441,207.6,432.7,207.6z M432.7,143.3h-64.3c-8.3,0-15-6.7-15-15c0-8.3,6.7-15,15-15h64.3c8.3,0,15,6.7,15,15
	C447.7,136.6,441,143.3,432.7,143.3z"/>
<path class="st0" d="M264,127.3H119.4c-13.9,0-25.2,11.3-25.2,25.2v208.9c0,13.9,11.3,25.2,25.2,25.2H264
	c13.9,0,25.2-11.3,25.2-25.2V152.4C289.2,138.6,277.9,127.3,264,127.3z M191.7,304c-26,0-47.1-21.1-47.1-47.1s21.1-47.1,47.1-47.1
	c26,0,47.1,21.1,47.1,47.1S217.7,304,191.7,304z"/>
</svg>
