<?xml version="1.0" encoding="utf-8"?>
<!-- Generator: Adobe Illustrator 24.1.2, SVG Export Plug-In . SVG Version: 6.00 Build 0)  -->
<svg version="1.1" id="Capa_1" xmlns="http://www.w3.org/2000/svg" xmlns:xlink="http://www.w3.org/1999/xlink" x="0px" y="0px"
	 viewBox="0 0 512 512" style="enable-background:new 0 0 512 512;" xml:space="preserve">
<style type="text/css">
	.st0{fill:#716D73;}
</style>
<g>
	<g>
		<path class="st0" d="M309.6,98.3h-38.2V78.5h9.3c8.3,0,15-6.7,15-15V15c0-8.3-6.7-15-15-15h-48.6c-8.3,0-15,6.7-15,15v9.3
			c-0.2,0-0.3,0-0.5,0h-44.3c-21.6,0-39.2,17.6-39.2,39.2v9.2c0,8.3,6.7,15,15,15s15-6.7,15-15v-9.2c0-5.1,4.1-9.2,9.2-9.2h44.3
			c0.2,0,0.3,0,0.5,0v9.3c0,8.3,6.7,15,15,15h9.3v19.8h-38.2c-8.3,0-15,6.7-15,15v21.5h136.5v-21.5C324.6,105,317.9,98.3,309.6,98.3
			z"/>
	</g>
</g>
<g>
	<g>
		<path class="st0" d="M328.7,164.8H184c-28.2,3.1-50.2,27.1-50.2,56V497c0,8.3,6.7,15,15,15h215c8.3,0,15-6.7,15-15V220.8
			C378.9,191.8,356.9,167.9,328.7,164.8z"/>
	</g>
</g>
</svg>
