<?xml version="1.0" encoding="utf-8"?>
<!-- Generator: Adobe Illustrator 24.1.2, SVG Export Plug-In . SVG Version: 6.00 Build 0)  -->
<svg version="1.1" id="Слой_1" xmlns="http://www.w3.org/2000/svg" xmlns:xlink="http://www.w3.org/1999/xlink" x="0px" y="0px"
	 viewBox="0 0 512 512" style="enable-background:new 0 0 512 512;" xml:space="preserve">
<style type="text/css">
	.st0{fill:#B690D1;}
	.st1{fill:#763A9C;}
</style>
<path class="st0" d="M400,512H256c-8.8,0-16-7.2-16-16V378.7c0-8.8,7.2-16,16-16h144c8.8,0,16,7.2,16,16V496
	C416,504.8,408.8,512,400,512z M272,480h112v-85.3H272V480z"/>
<path class="st0" d="M325.3,394.7H186.7c-8.8,0-16-7.2-16-16v-128c0-8.8,7.2-16,16-16h138.7c8.8,0,16,7.2,16,16v128
	C341.3,387.5,334.2,394.7,325.3,394.7z M202.7,362.7h106.7v-96H202.7V362.7z"/>
<path class="st0" d="M256,512H112c-8.8,0-16-7.2-16-16V378.7c0-8.8,7.2-16,16-16h144c8.8,0,16,7.2,16,16V496
	C272,504.8,264.8,512,256,512z M128,480h112v-85.3H128V480z"/>
<path class="st0" d="M256,298.7c-8.8,0-16-7.2-16-16v-32c0-8.8,7.2-16,16-16c8.8,0,16,7.2,16,16v32C272,291.5,264.8,298.7,256,298.7
	z"/>
<path class="st0" d="M186.7,426.7c-8.8,0-16-7.2-16-16v-32c0-8.8,7.2-16,16-16s16,7.2,16,16v32C202.7,419.5,195.5,426.7,186.7,426.7
	z"/>
<path class="st0" d="M325.3,426.7c-8.8,0-16-7.2-16-16v-32c0-8.8,7.2-16,16-16s16,7.2,16,16v32C341.3,419.5,334.2,426.7,325.3,426.7
	z"/>
<path class="st1" d="M474.7,512H37.3C16.7,512,0,495.3,0,474.7V181.3c0-5.3,2.6-10.2,6.9-13.2l240-165.3c5.5-3.8,12.7-3.8,18.2,0
	l240,165.3c4.3,3,6.9,7.9,6.9,13.2v293.3C512,495.3,495.3,512,474.7,512L474.7,512z M32,189.7v284.9c0,2.9,2.4,5.3,5.3,5.3h437.3
	c2.9,0,5.3-2.4,5.3-5.3V189.7L256,35.4L32,189.7z"/>
</svg>
