<?xml version="1.0" encoding="utf-8"?>
<!-- Generator: Adobe Illustrator 24.2.0, SVG Export Plug-In . SVG Version: 6.00 Build 0)  -->
<svg version="1.1" id="Layer_1" xmlns="http://www.w3.org/2000/svg" xmlns:xlink="http://www.w3.org/1999/xlink" x="0px" y="0px"
	 viewBox="0 0 512 512" style="enable-background:new 0 0 512 512;" xml:space="preserve">
<style type="text/css">
	.st0{fill:#763A9C;}
</style>
<g id="_02-shop">
	<g id="Glyph">
		<path class="st0" d="M511.9,170.7H0V192c0,23.6,19.1,42.7,42.7,42.7h64c23.6,0,42.7-19.1,42.7-42.7c0,23.6,19.1,42.7,42.7,42.7
			h128c23.6,0,42.7-19.1,42.7-42.7c0,23.6,19.1,42.7,42.7,42.7h64c23.6,0,42.7-19.1,42.7-42.7L511.9,170.7L511.9,170.7z"/>
		<path class="st0" d="M506.8,149.3L468.5,15.5C465.9,6.3,457.5,0,448,0h-97.7l29.9,149.3H506.8z"/>
		<path class="st0" d="M161.7,0H64c-9.5,0-17.9,6.3-20.5,15.5L5.2,149.3h126.6L161.7,0z"/>
		<path class="st0" d="M306.8,0H205.2l-29.9,149.3h161.3L306.8,0z"/>
		<path class="st0" d="M405.3,256c-15.8,0-31-5.8-42.7-16.3C351,250.2,335.8,256,320,256H192c-15.8,0-31-5.8-42.7-16.3
			c-11.7,10.5-26.9,16.3-42.7,16.3h-64c-7.3,0-14.5-1.3-21.3-3.7v238.4c0,11.8,9.6,21.3,21.3,21.3h42.7V320
			c0-11.8,9.6-21.3,21.3-21.3h106.7c11.8,0,21.3,9.6,21.3,21.3v192h234.7c11.8,0,21.3-9.6,21.3-21.3V252.3
			c-6.8,2.5-14.1,3.7-21.3,3.7H405.3z M426.7,384c0,11.8-9.6,21.3-21.3,21.3H298.7c-11.8,0-21.3-9.6-21.3-21.3v-64
			c0-11.8,9.6-21.3,21.3-21.3h106.7c11.8,0,21.3,9.6,21.3,21.3V384z"/>
	</g>
</g>
</svg>
