<?xml version="1.0" encoding="utf-8"?>
<!-- Generator: Adobe Illustrator 24.2.1, SVG Export Plug-In . SVG Version: 6.00 Build 0)  -->
<svg version="1.1" id="Capa_1" xmlns="http://www.w3.org/2000/svg" xmlns:xlink="http://www.w3.org/1999/xlink" x="0px" y="0px"
	 viewBox="0 0 512 512" style="enable-background:new 0 0 512 512;" xml:space="preserve">
<g>
	<g>
		<path d="M437.3,192h-32h-64H170.7v-42.7c0-47.1,38.3-85.3,85.3-85.3c36.8,0,68.2,23.4,80.2,56h66.3C388.8,51.7,328.3,0,256,0
			c-82.3,0-149.3,67-149.3,149.3V192h-32c-5.9,0-10.7,4.8-10.7,10.7v266.7c0,23.5,19.1,42.7,42.7,42.7h298.7
			c23.5,0,42.7-19.1,42.7-42.7V202.7C448,196.8,443.2,192,437.3,192z M287.9,414.8c0.3,3-0.6,6-2.7,8.3c-2,2.3-4.9,3.6-7.9,3.6
			h-42.7c-3,0-5.9-1.3-7.9-3.6s-3-5.3-2.7-8.3l6.7-60.5c-10.9-7.9-17.5-20.5-17.5-34.3c0-23.5,19.1-42.7,42.7-42.7
			s42.7,19.1,42.7,42.7c0,13.8-6.5,26.4-17.5,34.3L287.9,414.8z"/>
	</g>
</g>
</svg>
