<?xml version="1.0" encoding="utf-8"?>
<!-- Generator: Adobe Illustrator 24.1.2, SVG Export Plug-In . SVG Version: 6.00 Build 0)  -->
<svg version="1.1" id="Capa_1" xmlns="http://www.w3.org/2000/svg" xmlns:xlink="http://www.w3.org/1999/xlink" x="0px" y="0px"
	 viewBox="0 0 512 512" style="enable-background:new 0 0 512 512;" xml:space="preserve">
<style type="text/css">
	.st0{fill:#FFFFFF;}
</style>
<g>
	<g>
		<path class="st0" d="M256,288.4c-153.8,0-238.6,72.8-238.6,204.9c0,10.3,8.4,18.7,18.7,18.7h439.7c10.3,0,18.7-8.4,18.7-18.7
			C494.6,361.2,409.8,288.4,256,288.4z M55.5,474.6c7.3-98.8,74.7-148.9,200.5-148.9s193.2,50.1,200.5,148.9H55.5z"/>
	</g>
</g>
<g>
	<g>
		<path class="st0" d="M256,0c-70.7,0-124,54.4-124,126.4c0,74.2,55.6,134.5,124,134.5s124-60.4,124-134.5C380,54.4,326.7,0,256,0z
			 M256,223.6c-47.7,0-86.6-43.6-86.6-97.2c0-51.6,36.4-89.1,86.6-89.1c49.4,0,86.6,38.3,86.6,89.1C342.6,180,303.7,223.6,256,223.6
			z"/>
	</g>
</g>
</svg>
