<?xml version="1.0" encoding="utf-8"?>
<!-- Generator: Adobe Illustrator 24.1.2, SVG Export Plug-In . SVG Version: 6.00 Build 0)  -->
<svg version="1.1" id="Layer_1" xmlns="http://www.w3.org/2000/svg" xmlns:xlink="http://www.w3.org/1999/xlink" x="0px" y="0px"
	 viewBox="0 0 512 512" style="enable-background:new 0 0 512 512;" xml:space="preserve">
<style type="text/css">
	.st0{fill:#716D73;}
</style>
<g id="Page-1">
	<g id="_x30_31---Water-Filter" transform="translate(-1)">
		<path id="Shape" class="st0" d="M327.5,410.1c-15-10.4-34.9-10.4-49.8,0c-20.9,14-48.1,14-69,0c-7.2-5.3-16-8-24.9-7.8
			c-8.9-0.2-17.6,2.5-24.8,7.8c-10.1,7.1-22.2,10.8-34.5,10.5c-10.2,0.3-20.4-2.3-29.3-7.4l4.9,81.6c0.6,9.7,8.6,17.2,18.3,17.2h250
			c9.7,0,17.7-7.5,18.3-17.2l4.9-81.7c-8.9,5.1-19.1,7.7-29.4,7.4C349.8,420.8,337.7,417.1,327.5,410.1L327.5,410.1z"/>
		<path id="Shape_1_" class="st0" d="M330.9,292.6h-19.1V320c0,20.2-16.4,36.6-36.6,36.6h-64c-20.2,0-36.6-16.4-36.6-36.6v-27.4h-19
			c-26.9,0-52.4-11.9-69.7-32.5l7.9,131.1c2,1.1,3.9,2.2,5.7,3.4c7.2,5.2,16,8,24.9,7.7c8.9,0.2,17.7-2.5,24.9-7.8
			c10.1-7.1,22.1-10.7,34.4-10.5c12.3-0.2,24.4,3.4,34.5,10.5c15,10.4,34.9,10.4,49.8,0c20.9-14,48.1-14,69,0
			c15,10.4,34.9,10.4,49.9,0.1c1.8-1.1,3.8-2.3,5.8-3.4l7.9-131.1C383.3,280.7,357.8,292.6,330.9,292.6L330.9,292.6z"/>
		<path id="Shape_2_" class="st0" d="M243.3,0C166,0,90.3,26,76.6,54.9H410C396.3,26,320.6,0,243.3,0L243.3,0z"/>
		<path id="Shape_3_" class="st0" d="M10.1,73.1c-3.4,0-6.6,1.9-8.1,5c-1.6,3-1.3,6.7,0.7,9.4l59.7,85.9l-6-100.2L10.1,73.1z"/>
		<path id="Shape_4_" class="st0" d="M205.8,233.3l-10.2,41H291l-10.2-41c-2-8.1-9.4-13.9-17.8-13.9h-39.5
			C215.2,219.4,207.8,225.1,205.8,233.3L205.8,233.3z"/>
		<path id="Shape_5_" class="st0" d="M467.3,210.3V160c0-23.2-19.3-37-39.9-40l-5.2,86.6l-6.7,111.3
			C439.2,301.3,467.3,269.1,467.3,210.3L467.3,210.3z"/>
		<path id="Shape_6_" class="st0" d="M82.7,205.5c2.4,38.6,34.3,68.7,73,68.8h21l11.4-45.4c3-11.9,11.7-21.5,23.2-25.6v-38.7
			c0-15.1,12.3-27.4,27.4-27.4h9.1c15.1,0,27.4,12.3,27.4,27.4v38.7c11.5,4.1,20.3,13.7,23.2,25.6l11.4,45.4h21
			c38.6-0.1,70.6-30.1,73-68.7l8-132.5H74.7L82.7,205.5z M156.4,91.4h109.7c5,0,9.1,4.1,9.1,9.1s-4.1,9.1-9.1,9.1H156.4
			c-5,0-9.1-4.1-9.1-9.1S151.4,91.4,156.4,91.4z M101.6,91.4h18.3c5,0,9.1,4.1,9.1,9.1s-4.1,9.1-9.1,9.1h-18.3c-5,0-9.1-4.1-9.1-9.1
			S96.5,91.4,101.6,91.4z"/>
		<path id="Shape_7_" class="st0" d="M247.9,155.4h-9.1c-5,0-9.1,4.1-9.1,9.1v36.6H257v-36.6C257,159.5,252.9,155.4,247.9,155.4z"/>
		<path id="Shape_8_" class="st0" d="M430.2,73.5l-1.7,28.2c32.7,4,57.1,28.1,57.1,58.2v50.3c0,76.9-42.7,113.9-71.4,130.1
			l-1.9,31.7C442.7,358.5,513,315.6,513,210.3V160C512.5,113.9,476.2,76.1,430.2,73.5z"/>
		<path id="Shape_9_" class="st0" d="M193,320c0,10.1,8.2,18.3,18.3,18.3h64c10.1,0,18.3-8.2,18.3-18.3v-27.4H193V320z"/>
	</g>
</g>
</svg>
