<?xml version="1.0" encoding="utf-8"?>
<!-- Generator: Adobe Illustrator 24.1.2, SVG Export Plug-In . SVG Version: 6.00 Build 0)  -->
<svg version="1.1" id="Layer_1" xmlns="http://www.w3.org/2000/svg" xmlns:xlink="http://www.w3.org/1999/xlink" x="0px" y="0px"
	 viewBox="0 0 512 512" style="enable-background:new 0 0 512 512;" xml:space="preserve">
<style type="text/css">
	.st0{fill:#763A9C;}
	.st1{fill:#B690D1;}
</style>
<g id="Слой_1">
	<g>
		<path class="st0" d="M193.8,499c-1.9-1.6-47.9-38.9-94.4-92.3C35.4,333.2,3,267.4,3,211.2v-5.7C3,94.4,93.4,4,204.5,4
			S406,94.4,406,205.5v5.7c0,2.6-0.1,5.4-0.2,8.2l-34.6-31.6c-9-85.5-80.5-149.9-166.7-149.9c-92.4,0-167.6,75.2-167.6,167.6v5.7
			c0,42,22.8,92.1,67.8,148.9c35.4,44.8,75.4,82.1,96.8,100.9v44.2L193.8,499z"/>
	</g>
	<rect x="327.2" y="371.1" class="st0" width="59.9" height="59.9"/>
	<g>
		<path class="st0" d="M293.5,508.8c-28.2,0-51.1-22.9-51.1-51.1v-70.9l-14,12.8l-22.8-25l151.1-137.9l151.1,137.9l-22.8,25
			l-14-12.8v70.9c0,28.2-22.9,51.1-51.1,51.1H293.5z M276.3,355.9v101.8c0,9.5,7.7,17.2,17.2,17.2h126.3c9.5,0,17.2-7.7,17.2-17.2
			V355.9l-80.4-73.3L276.3,355.9z"/>
	</g>
	<g>
		<g>
			<path class="st1" d="M204.5,284c-43.3,0-78.5-35.2-78.5-78.5s35.2-78.5,78.5-78.5s78.5,35.2,78.5,78.5S247.8,284,204.5,284z
				 M204.5,157c-26.7,0-48.5,21.8-48.5,48.5s21.8,48.5,48.5,48.5s48.5-21.8,48.5-48.5S231.2,157,204.5,157z"/>
		</g>
	</g>
</g>
<g id="Слой_2">
</g>
</svg>
