<?xml version="1.0" encoding="utf-8"?>
<!-- Generator: Adobe Illustrator 24.2.0, SVG Export Plug-In . SVG Version: 6.00 Build 0)  -->
<svg version="1.1" id="Capa_1" xmlns="http://www.w3.org/2000/svg" xmlns:xlink="http://www.w3.org/1999/xlink" x="0px" y="0px"
	 viewBox="0 0 512 512" fill="#a9a7a9" style="enable-background:new 0 0 512 512;" xml:space="preserve">
<g>
	<path class="st0" d="M510.9,396.7c-1.4-4.4-10.7-10.8-27.6-19.3c-4.6-2.7-11.1-6.3-19.6-10.9c-8.5-4.6-16.2-8.9-23.1-12.7
		c-6.9-3.9-13.4-7.6-19.5-11.3c-1-0.7-4-2.8-9.1-6.4c-5.1-3.5-9.4-6.1-12.9-7.8c-3.5-1.7-7-2.5-10.4-2.5c-4.8,0-10.9,3.5-18.2,10.4
		c-7.3,6.9-13.9,14.4-20,22.6c-6.1,8.1-12.5,15.6-19.3,22.5c-6.8,6.9-12.4,10.4-16.7,10.4c-2.2,0-4.9-0.6-8.2-1.8
		c-3.3-1.2-5.8-2.2-7.5-3.1c-1.7-0.9-4.6-2.5-8.7-5.1c-4.1-2.5-6.4-3.9-6.9-4.2c-33.2-18.4-61.7-39.5-85.5-63.3
		c-23.8-23.8-44.8-52.2-63.3-85.5c-0.2-0.5-1.6-2.8-4.2-6.9c-2.5-4.1-4.2-7-5.1-8.7c-0.8-1.7-1.9-4.2-3.1-7.5
		c-1.2-3.3-1.8-6-1.8-8.2c0-4.4,3.5-9.9,10.4-16.7c6.9-6.8,14.4-13.2,22.5-19.3c8.1-6.1,15.6-12.7,22.5-20
		c6.9-7.3,10.4-13.3,10.4-18.2c0-3.4-0.8-6.8-2.5-10.4c-1.7-3.5-4.3-7.8-7.8-12.9c-3.5-5.1-5.6-8.1-6.4-9.1
		c-3.6-6.1-7.4-12.5-11.3-19.4c-3.9-6.9-8.1-14.6-12.7-23.1c-4.6-8.5-8.2-15-10.9-19.6c-8.5-17-14.9-26.2-19.3-27.6
		C113.6,0.4,111,0,107.6,0C101.1,0,92.6,1.2,82,3.6c-10.5,2.4-18.8,5-24.9,7.6c-12.1,5.1-25,19.9-38.5,44.4C6.2,78.4,0,101,0,123.3
		c0,6.5,0.4,12.9,1.3,19.1c0.8,6.2,2.4,13.2,4.5,20.9c2.2,7.8,3.9,13.5,5.3,17.3c1.3,3.8,3.8,10.5,7.5,20.2
		c3.6,9.7,5.8,15.6,6.5,17.8c8.5,23.8,18.5,45,30.2,63.6c19.1,31,45.3,63.1,78.4,96.2c33.1,33.1,65.2,59.2,96.2,78.4
		c18.7,11.6,39.9,21.7,63.6,30.2c2.2,0.7,8.1,2.9,17.8,6.5c9.7,3.6,16.4,6.1,20.2,7.5c3.8,1.3,9.5,3.1,17.3,5.3
		c7.8,2.2,14.7,3.7,20.9,4.6c6.2,0.8,12.5,1.3,19.1,1.3c22.3,0,44.8-6.2,67.6-18.5c24.5-13.6,39.3-26.4,44.4-38.6
		c2.7-6.1,5.2-14.4,7.6-24.9c2.4-10.5,3.6-19.1,3.6-25.6C512,401,511.6,398.4,510.9,396.7z"/>
</g>
</svg>
