<?xml version="1.0" encoding="utf-8"?>
<!-- Generator: Adobe Illustrator 24.1.2, SVG Export Plug-In . SVG Version: 6.00 Build 0)  -->
<svg version="1.1" id="Capa_1" xmlns="http://www.w3.org/2000/svg" xmlns:xlink="http://www.w3.org/1999/xlink" x="0px" y="0px"
	 viewBox="0 0 512 512" style="enable-background:new 0 0 512 512;" xml:space="preserve">
<style type="text/css">
	.st0{fill:#B690D1;}
	.st1{fill:#763A9C;}
</style>
<g>
	<g>
		<g>
			<path class="st0" d="M119.5,349.9c-14.1,0-25.6,11.5-25.6,25.6s11.5,25.6,25.6,25.6s25.6-11.5,25.6-25.6
				C145.1,361.3,133.6,349.9,119.5,349.9z M119.5,384c-4.7,0-8.5-3.8-8.5-8.5s3.8-8.5,8.5-8.5s8.5,3.8,8.5,8.5S124.2,384,119.5,384z
				"/>
			<path class="st0" d="M392.5,349.9c-14.1,0-25.6,11.5-25.6,25.6s11.5,25.6,25.6,25.6s25.6-11.5,25.6-25.6
				C418.1,361.3,406.7,349.9,392.5,349.9z M392.5,384c-4.7,0-8.5-3.8-8.5-8.5s3.8-8.5,8.5-8.5s8.5,3.8,8.5,8.5
				C401.1,380.2,397.2,384,392.5,384z"/>
			<path class="st1" d="M505.5,228.4l-58.8-66.2c-4.9-5.5-11.9-8.6-19.2-8.6h-77.7v-51.2c0-14.1-11.5-25.6-25.6-25.6H25.6
				C11.5,76.8,0,88.3,0,102.4v221.9c0,2.3,0.9,4.4,2.5,6s3.8,2.5,6,2.5H17v25.6c0,14.1,11.5,25.6,25.6,25.6h17.7
				c4.2,29.4,29.4,51.2,59.1,51.2s54.8-21.8,59.1-51.2h155c4.2,29.4,29.4,51.2,59.1,51.2s54.8-21.8,59.1-51.2h34.8
				c14.1,0,25.6-11.5,25.6-25.6v-113C512,239.1,509.7,233.1,505.5,228.4z M17.1,315.7V102.4c0-4.7,3.8-8.5,8.5-8.5h298.7
				c4.7,0,8.5,3.8,8.5,8.5v213.3H17.1z M60.4,366.9H42.7c-4.7,0-8.5-3.8-8.5-8.5v-25.6h43.6C68.4,342,62.3,354,60.4,366.9z
				 M119.5,418.1c-23.6,0-42.7-19.1-42.7-42.7s19.1-42.7,42.7-42.7s42.7,19.1,42.7,42.7C162.1,399,143,418.1,119.5,418.1z
				 M204.8,366.9h-26.3c-1.9-13-8-25-17.3-34.1h43.6L204.8,366.9L204.8,366.9z M281.6,366.9h-59.7v-34.1h59.7V366.9z M333.5,366.9
				h-34.8v-34.1h52.1C341.4,342,335.3,354,333.5,366.9z M392.5,418.1c-23.6,0-42.7-19.1-42.7-42.7s19.1-42.7,42.7-42.7
				s42.7,19.1,42.7,42.7S416.1,418.1,392.5,418.1z M494.9,358.4c0,4.7-3.8,8.5-8.5,8.5h-34.8c-4.3-29.4-29.4-51.1-59.1-51.2h-42.7
				v-145H384V256c0,14.1,11.5,25.6,25.6,25.6h85.3L494.9,358.4L494.9,358.4z M494.9,264.5h-85.3c-4.7,0-8.5-3.8-8.5-8.5v-85.3h26.5
				c2.5,0,4.8,1,6.4,2.9l58.8,66.2c1.4,1.6,2.2,3.6,2.2,5.7L494.9,264.5L494.9,264.5z"/>
		</g>
	</g>
</g>
</svg>
